<svg xmlns="http://www.w3.org/2000/svg" width="180" height="54" viewBox="0 0 180 54">
    <g fill="none" fill-rule="evenodd">
        <g>
            <g>
                <g>
                    <path fill="#1E394F" d="M12.005 32.43l2.699 11.134c.39 1.61 2.012 2.599 3.622 2.208.562-.136 1.072-.431 1.47-.85l4.676-4.93-2.18-2.974L38.07 14.943c.642-.899.435-2.148-.464-2.79-.754-.54-1.779-.49-2.477.12L12.005 32.43z" transform="translate(-40 -36) translate(40 36) rotate(-6 49.19 2.355)"/>
                    <path fill="#367CFF" d="M4.869 28.179l5.659 3.607c1.062.677 2.433.619 3.434-.146l22.904-17.502c.878-.67 1.046-1.926.375-2.804-.55-.719-1.514-.98-2.351-.635L5.339 22.876c-1.532.63-2.262 2.384-1.631 3.916.235.57.64 1.055 1.161 1.387z" transform="translate(-40 -36) translate(40 36) rotate(-6 49.19 2.355)"/>
                    <path fill="#367CFF" d="M22.93 39.052l9.523 5.783c1.416.86 3.261.41 4.121-1.007.22-.363.362-.769.413-1.19l3.42-27.79c.203-1.645-.966-3.142-2.61-3.344-1.187-.146-2.347.426-2.953 1.456L21.9 34.967c-.831 1.414-.373 3.234 1.029 4.085z" transform="translate(-40 -36) translate(40 36) rotate(-6 49.19 2.355)"/>
                </g>
                <path fill="#367CFF" fill-rule="nonzero" d="M86.525 30.91c1.003 0 1.708.548 1.768 1.489l.004.13v14.713c0 1.023-.699 1.62-1.741 1.62-1.02 0-1.735-.503-1.797-1.398l-.005-.13v-.488c-1.082 1.358-2.61 2.152-4.59 2.273l-.274.012-.267.004c-3.687 0-5.862-2.29-5.946-6.112l-.003-.23V32.53c0-1.026.729-1.62 1.802-1.62 1.027 0 1.738.543 1.797 1.488l.005.132v9.687c0 2.453.945 3.647 2.89 3.647 1.443 0 2.632-.666 3.601-2.006.628-.889.913-1.69.95-2.68l.005-.232V32.53c0-1.026.728-1.62 1.801-1.62zm24.764-4.693c.99 0 1.706.568 1.767 1.492l.004.128v3.254h3.466c.873 0 1.418.528 1.514 1.35l.011.133.004.137c0 .895-.536 1.528-1.398 1.586l-.131.004h-3.467l.001 9.732c0 1.113.352 1.617 1.112 1.699l.117.009.118.002c.599 0 1.032-.136 1.603-.471.252-.126.487-.195.728-.195.617 0 1.13.421 1.375 1.035.106.25.154.534.154.828 0 .612-.291 1.151-.867 1.458-1.03.497-1.91.706-3.175.706-2.871 0-4.625-1.561-4.705-4.608l-.003-.22V34.3h-1.952c-.843 0-1.36-.52-1.453-1.32l-.012-.136-.004-.134c0-.916.492-1.556 1.366-1.615l.133-.005h1.921l.001-3.254c0-.924.577-1.508 1.493-1.605l.14-.011.139-.004zm-43.381-2.119c1.056 0 1.768.545 1.828 1.516l.004.135v20.797c0 1.433-.812 2.316-2.226 2.316-1.305 0-1.922-.417-2.778-1.741l-.113-.178-8.02-12.986c-.094-.148-.19-.305-.288-.469l-.302-.512-.156-.27-.397-.705-.404-.737-.4-.753-.198-.377-.36-.701.008.11.059 1.02.027.533.049 1.105.042 1.146.018.584.03 1.182c.008.396.015.793.02 1.19l.01 1.183v9.726c0 1.026-.76 1.65-1.832 1.65-1.05 0-1.795-.566-1.858-1.518l-.004-.132V26.324c0-1.352.916-2.226 2.316-2.226 1.31 0 1.982.413 2.698 1.49l.103.158 7.629 12.382.18.296.374.631.193.332.392.688.477.857.473.872c.156.29.31.58.46.866l.22.425.173.337-.017-.247c-.145-2.137-.256-4.675-.285-7.068l-.006-.712-.001-.484V25.75c0-1.054.751-1.65 1.862-1.65zm35.267 6.781c.383 0 .734.114 1.075.342.491.327.818.882.818 1.46 0 .289-.09.57-.261.838l-.093.133-4.45 5.962 4.783 6.444c.165.221.275.466.324.722l.022.155.008.156c0 .562-.282 1.083-.757 1.4-.355.237-.73.371-1.105.371-.483 0-.924-.2-1.225-.58l-.078-.107-4.178-5.917-4.212 5.926c-.268.357-.628.58-1.016.652l-.147.02-.133.006c-.403 0-.814-.137-1.212-.407-.42-.377-.68-.84-.68-1.334 0-.288.09-.57.26-.838l.093-.133 4.869-6.532-4.626-5.965c-.166-.22-.276-.45-.325-.686l-.022-.142-.008-.144c0-.571.321-1.125.818-1.43.332-.221.712-.341 1.075-.341.47 0 .905.191 1.234.565l.096.118L98.052 37l3.797-5.442c.274-.366.641-.587 1.05-.656l.137-.017.14-.006z" transform="translate(-40 -36) translate(40 36)"/>
                <path fill="#1E394F" fill-rule="nonzero" d="M150.704 30.668c3.722 0 5.864 2.236 5.946 6.08l.003.232v10.262c0 1.02-.749 1.62-1.802 1.62-1.027 0-1.738-.543-1.797-1.488l-.005-.132v-9.687c0-2.44-.929-3.617-2.89-3.617-1.278 0-2.505.923-3.697 2.57-.66.897-.942 1.649-.976 2.63l-.004.215v7.89c0 1.02-.724 1.62-1.771 1.62-1.046 0-1.74-.538-1.798-1.489l-.004-.132V32.5c0-1.007.74-1.59 1.832-1.59.99 0 1.676.54 1.737 1.457l.004.133v.242l.123-.14c1.08-1.188 2.576-1.82 4.538-1.92l.284-.01.277-.003zm20.434-6.388c4.571 0 7.28 2.255 7.28 6.13 0 2.44-.863 4.125-2.656 5.164l-.195.11-.147.074.108.04c2.304.883 3.561 2.73 3.696 5.439l.01.256.002.24c0 4.286-2.796 6.855-7.506 6.945l-.26.003h-7.477c-2.322 0-3.405-1.074-3.464-3.442l-.002-.207V27.96c0-2.469 1.015-3.615 3.27-3.676l.196-.003h7.145zm-40.142 0c4.572 0 7.281 2.255 7.281 6.13 0 2.44-.864 4.125-2.656 5.164l-.196.11-.147.074.108.04c2.305.883 3.562 2.73 3.696 5.439l.01.256.002.24c0 4.286-2.795 6.855-7.506 6.945l-.259.003h-7.477c-2.323 0-3.406-1.074-3.464-3.442l-.003-.207V27.96c0-2.469 1.015-3.615 3.27-3.676l.197-.003h7.144zm40.081 13.26h-6.918l.001 7.22c0 .42.114.569.473.588l.087.002h6.418c2.832 0 4.283-1.333 4.283-3.89 0-2.53-1.384-3.85-4.12-3.917l-.224-.003zm-40.141 0h-6.918v7.22c0 .42.114.569.473.588l.087.002h6.418c2.833 0 4.283-1.333 4.283-3.89 0-2.53-1.384-3.85-4.119-3.917l-.224-.003zm39.99-9.93h-6.297c-.3 0-.444.134-.466.465l-.003.095v6.07h6.826c2.302 0 3.629-1.192 3.705-3.274l.003-.192c0-2.118-1.224-3.163-3.768-3.163zm-40.142 0h-6.297c-.3 0-.444.134-.465.465l-.003.095-.001 6.07h6.827c2.301 0 3.628-1.192 3.704-3.274l.004-.192c0-2.118-1.224-3.163-3.769-3.163z" transform="translate(-40 -36) translate(40 36)"/>
            </g>
        </g>
    </g>
</svg>
