<svg xmlns="http://www.w3.org/2000/svg" width="16" height="18" viewBox="0 0 16 18">
    <g fill="none" fill-rule="evenodd">
        <g fill="#367CFF" fill-rule="nonzero">
            <g>
                <path d="M156.062 39c.932 0 1.688-.756 1.688-1.688V24.937c0-.931-.756-1.687-1.688-1.687h-1.687v-1.828c0-.232-.19-.422-.422-.422h-1.406c-.232 0-.422.19-.422.422v1.828h-4.5v-1.828c0-.232-.19-.422-.422-.422h-1.406c-.232 0-.422.19-.422.422v1.828h-1.688c-.931 0-1.687.756-1.687 1.687v12.375c0 .932.756 1.688 1.687 1.688h12.375zm-.21-1.688h-11.954c-.116 0-.21-.094-.21-.21V26.625h12.374v10.477c0 .116-.094.21-.21.21zm-8.649-6.187c.232 0 .422-.19.422-.422v-1.406c0-.232-.19-.422-.422-.422h-1.406c-.232 0-.422.19-.422.422v1.406c0 .232.19.422.422.422h1.406zm3.375 0c.232 0 .422-.19.422-.422v-1.406c0-.232-.19-.422-.422-.422h-1.406c-.232 0-.422.19-.422.422v1.406c0 .232.19.422.422.422h1.406zm3.375 0c.232 0 .422-.19.422-.422v-1.406c0-.232-.19-.422-.422-.422h-1.406c-.232 0-.422.19-.422.422v1.406c0 .232.19.422.422.422h1.406zm-3.375 3.375c.232 0 .422-.19.422-.422v-1.406c0-.232-.19-.422-.422-.422h-1.406c-.232 0-.422.19-.422.422v1.406c0 .232.19.422.422.422h1.406zm-3.375 0c.232 0 .422-.19.422-.422v-1.406c0-.232-.19-.422-.422-.422h-1.406c-.232 0-.422.19-.422.422v1.406c0 .232.19.422.422.422h1.406zm6.75 0c.232 0 .422-.19.422-.422v-1.406c0-.232-.19-.422-.422-.422h-1.406c-.232 0-.422.19-.422.422v1.406c0 .232.19.422.422.422h1.406z" transform="translate(-939 -57) translate(797 36)"/>
            </g>
        </g>
    </g>
</svg>
