<svg xmlns="http://www.w3.org/2000/svg" width="20" height="18" viewBox="0 0 20 18">
    <g fill="none" fill-rule="evenodd">
        <g fill="#FF819E" fill-rule="nonzero">
            <g>
                <path d="M698 39.505c.559 0 1.078-.219 1.469-.617l6.851-6.98c2.09-2.138 2.528-6.169-.414-8.645-2.258-1.899-5.746-1.614-7.906.586-2.16-2.2-5.648-2.489-7.906-.586-2.938 2.472-2.508 6.503-.414 8.64l6.851 6.98c.39.4.914.622 1.469.622zm-.133-1.938l-6.851-6.98c-1.426-1.453-1.715-4.203.285-5.887 1.52-1.277 3.863-1.086 5.332.41L698 26.505l1.367-1.395c1.477-1.504 3.82-1.687 5.332-.414 1.996 1.684 1.7 4.45.285 5.89l-6.851 6.981c-.094.094-.172.094-.266 0z" transform="translate(-728 -1159) translate(40 1137)"/>
            </g>
        </g>
    </g>
</svg>
