<svg xmlns="http://www.w3.org/2000/svg" width="23" height="21" viewBox="0 0 23 21">
    <g fill="none" fill-rule="evenodd">
        <g fill="#B6BBCD" fill-rule="nonzero">
            <path d="M1423.375 75.5c.345 0 .625-.28.625-.625V64.473l1.074.882c.096.08.276.146.401.146.161 0 .376-.1.48-.224l.4-.48c.08-.096.146-.276.146-.401 0-.162-.101-.378-.226-.481l-9.624-7.907c-.336-.28-.964-.508-1.401-.508-.438 0-1.066.228-1.402.508l-9.623 7.907c-.124.103-.224.318-.224.48 0 .124.065.304.146.4l.4.48c.103.124.318.224.479.224.125 0 .305-.065.401-.145l1.073-.88v2.276h-.012v8.125c.003.344.284.624.629.625h16.258zm-10.625-1.875h-4.387V63.097l.012-.01v-.156l6.875-5.648 6.875 5.65v1.317h-.008v9.375h-4.367V68c0-.69-.56-1.25-1.25-1.25h-2.5c-.69 0-1.25.56-1.25 1.25v5.625z" transform="translate(-1404 -55)"/>
        </g>
    </g>
</svg>
