<svg xmlns="http://www.w3.org/2000/svg" width="20" height="21" viewBox="0 0 20 21">
    <g fill="none" fill-rule="evenodd">
        <g fill="#367CFF" fill-rule="nonzero">
            <g>
                <path d="M10 20.5c4.136 0 7.5-3.364 7.5-7.5 0-1.997-.79-3.81-2.067-5.155l4.453-6.361c.29-.415-.006-.984-.512-.984h-6.166c-.44 0-.846.23-1.072.607L10 4.667l-2.136-3.56C7.664.772 7.183.5 6.792.5H.626c-.506 0-.802.57-.512.984l4.453 6.361C3.289 9.19 2.5 11.003 2.5 13c0 4.136 3.364 7.5 7.5 7.5zM6.022 6.654L3.027 2.375h3.411l1.978 3.297c-.863.187-1.669.525-2.394.982zm7.956 0c-.725-.457-1.53-.796-2.394-.982l1.978-3.297h3.411l-2.995 4.279zM10 18.625c-3.107 0-5.625-2.518-5.625-5.625S6.893 7.375 10 7.375 15.625 9.893 15.625 13 13.107 18.625 10 18.625zm-2.04-2.348c.069 0 .14-.017.208-.053L10 15.26l1.832.963c.068.036.139.052.207.052.26 0 .493-.233.443-.525l-.35-2.04 1.482-1.443c.266-.26.12-.712-.248-.765l-2.048-.299-.915-1.856c-.083-.166-.243-.25-.404-.25-.16 0-.319.083-.401.25l-.916 1.856-2.048.299c-.367.053-.514.506-.248.765l1.482 1.444-.35 2.04c-.05.291.182.525.442.525z" transform="translate(-523 -3512) translate(523 3512)"/>
            </g>
        </g>
    </g>
</svg>
