<svg xmlns="http://www.w3.org/2000/svg" width="12" height="16" viewBox="0 0 12 16">
    <g fill="none" fill-rule="evenodd">
        <g fill="#367CFF" fill-rule="nonzero">
            <g>
                <g>
                    <path d="M7.273 15.294C11.253 8.914 12 8.222 12 6c0-3.315-2.688-6-6-6-3.316 0-6 2.688-6 6 0 2.222.75 2.917 4.727 9.294.587.942 1.96.94 2.546 0zM6 14.5C2.018 8.115 1.5 7.712 1.5 6c0-2.485 2.015-4.5 4.5-4.5s4.5 2.015 4.5 4.5c0 1.705-.474 2.045-4.5 8.5zm0-6c1.38 0 2.5-1.12 2.5-2.5S7.38 3.5 6 3.5 3.5 4.62 3.5 6 4.62 8.5 6 8.5z" transform="translate(-256 -1860) translate(236 1611) translate(20 249)"/>
                </g>
            </g>
        </g>
    </g>
</svg>
