<svg xmlns="http://www.w3.org/2000/svg" width="22" height="21" viewBox="0 0 22 21">
    <g fill="none" fill-rule="evenodd">
        <g fill="#367CFF" fill-rule="nonzero">
            <g>
                <path d="M6.145 20.355l5.105-2.683 5.105 2.683c.907.477 1.989-.289 1.813-1.316l-.977-5.684 4.13-4.023c.741-.723.331-1.984-.692-2.133l-5.707-.832-2.55-5.172c-.458-.922-1.782-.933-2.243 0l-2.55 5.172L1.87 7.2C.848 7.348.438 8.61 1.18 9.332l4.129 4.023-.977 5.684c-.176 1.027.906 1.797 1.813 1.316zm9.96-2.25l-4.855-2.55-4.855 2.55.925-5.406-3.93-3.828 5.43-.789 2.43-4.922 2.43 4.922 5.43.79-3.93 3.827.925 5.406z" transform="translate(-352 -3512) translate(352 3512)"/>
            </g>
        </g>
    </g>
</svg>
