<svg xmlns="http://www.w3.org/2000/svg" width="1600" height="381" viewBox="0 0 1600 381">
    <g fill="none" fill-rule="evenodd">
        <g>
            <g>
                <g opacity=".3">
                    <path fill="#FFF" d="M0 238.867L415.668 2.039c2.18-1.242 4.884-1.096 6.917.373l135.314 97.786 59.033-43.952c2.318-1.726 5.504-1.684 7.776.101l40.625 31.926v150.594H0z" transform="translate(0 -618) translate(0 618.862) translate(322 129.137)"/>
                    <path fill="#A7D8FF" d="M413.36 3.381c8.033 49.41-16.42 77.063-73.362 82.958-27.339 2.831-57.831 30.39-91.477 82.678l-128.6.325L413.36 3.381zM557.167 99.632l22.929 16.682c3.572 2.6 8.576 1.81 11.175-1.762.372-.511.682-1.065.924-1.649l22.849-55.245-57.877 41.974z" transform="translate(0 -618) translate(0 618.862) translate(322 129.137)"/>
                </g>
                <g>
                    <path fill="#D2EBFF" d="M0 298.555L602.427 2.125c2.658-1.307 5.82-1.04 8.22.697l169.216 122.414 73.696-54.929c2.899-2.16 6.886-2.108 9.727.127L914 110.331v188.224H0z" transform="translate(0 -618) translate(0 618.862) translate(686 .138)"/>
                    <path fill="#A7D8FF" d="M599.396 4.226c-40.69 86.212-107.041 143.852-199.055 172.92-92.014 29.069-138.6 69.538-139.76 121.41H0L599.396 4.225zM778.948 124.528l28.61 20.839c4.465 3.251 10.72 2.268 13.971-2.196.467-.641.857-1.336 1.16-2.069l28.522-69.036-72.263 52.462z" transform="translate(0 -618) translate(0 618.862) translate(686 .138)"/>
                </g>
                <g>
                    <path fill="#D2EBFF" d="M0 238.867L359.723 2.425c2.22-1.46 5.112-1.396 7.265.162l134.983 97.61 58.99-43.948c2.318-1.727 5.506-1.686 7.779.102l40.593 31.922v150.594H0z" transform="translate(0 -618) translate(0 618.862) matrix(-1 0 0 1 610 140.137)"/>
                    <path fill="#A7D8FF" d="M357.528 3.381c8.028 49.41-16.409 77.063-73.312 82.958-56.904 5.896-82.12 56.739-75.65 152.528H0L357.528 3.38zM501.24 99.632l22.905 16.676c3.572 2.601 8.575 1.814 11.176-1.758.373-.513.684-1.067.926-1.653l22.831-55.239-57.839 41.974z" transform="translate(0 -618) translate(0 618.862) matrix(-1 0 0 1 610 140.137)"/>
                </g>
                <g stroke-linecap="round" stroke-width="3">
                    <g stroke="#3892F0">
                        <g>
                            <path d="M0 0c0 7.342 5.995 13.294 13.391 13.294M0 16.618c0 7.342 5.995 13.294 13.391 13.294M0 33.235C0 40.577 5.995 46.53 13.391 46.53" transform="translate(0 -618) translate(0 618.862) translate(1379 149.137) translate(15.507 .332)"/>
                        </g>
                        <g>
                            <path d="M0 0c0 7.342 5.995 13.294 13.391 13.294M0 16.618c0 7.342 5.995 13.294 13.391 13.294M0 33.235C0 40.577 5.995 46.53 13.391 46.53" transform="translate(0 -618) translate(0 618.862) translate(1379 149.137) matrix(-1 0 0 1 14.391 .332)"/>
                        </g>
                        <path d="M14.883 0L14.883 70.06" transform="translate(0 -618) translate(0 618.862) translate(1379 149.137)"/>
                    </g>
                    <path stroke="#A7D8FF" d="M77.937 111.951L14.883 70.06" transform="translate(0 -618) translate(0 618.862) translate(1379 149.137)"/>
                </g>
                <g stroke-linecap="round" stroke-width="2.1">
                    <g stroke="#3892F0">
                        <g>
                            <path d="M0 0c0 5.162 4.212 9.346 9.408 9.346M0 11.683c0 5.162 4.212 9.347 9.408 9.347M0 23.366c0 5.162 4.212 9.347 9.408 9.347" transform="translate(0 -618) translate(0 618.862) translate(188 234.137) translate(11.312 .234)"/>
                        </g>
                        <g>
                            <path d="M0 0c0 5.162 4.212 9.346 9.408 9.346M0 11.683c0 5.162 4.212 9.347 9.408 9.347M0 23.366c0 5.162 4.212 9.347 9.408 9.347" transform="translate(0 -618) translate(0 618.862) translate(188 234.137) matrix(-1 0 0 1 10.528 .234)"/>
                        </g>
                        <path d="M10.873 0L10.873 49.256" transform="translate(0 -618) translate(0 618.862) translate(188 234.137)"/>
                    </g>
                    <path stroke="#A7D8FF" d="M55.172 78.707L10.873 49.256" transform="translate(0 -618) translate(0 618.862) translate(188 234.137)"/>
                </g>
                <g stroke-linecap="round" stroke-width="3">
                    <g stroke="#3892F0">
                        <g>
                            <path d="M0 0c0 7.342 5.995 13.294 13.391 13.294M0 16.618c0 7.342 5.995 13.294 13.391 13.294M0 33.235C0 40.577 5.995 46.53 13.391 46.53" transform="translate(0 -618) translate(0 618.862) translate(1179 230.137) translate(15.507 .332)"/>
                        </g>
                        <g>
                            <path d="M0 0c0 7.342 5.995 13.294 13.391 13.294M0 16.618c0 7.342 5.995 13.294 13.391 13.294M0 33.235C0 40.577 5.995 46.53 13.391 46.53" transform="translate(0 -618) translate(0 618.862) translate(1179 230.137) matrix(-1 0 0 1 14.391 .332)"/>
                        </g>
                        <path d="M14.883 0L14.883 70.06" transform="translate(0 -618) translate(0 618.862) translate(1179 230.137)"/>
                    </g>
                    <path stroke="#A7D8FF" d="M77.937 111.951L14.883 70.06" transform="translate(0 -618) translate(0 618.862) translate(1179 230.137)"/>
                </g>
            </g>
        </g>
    </g>
</svg>
