<svg xmlns="http://www.w3.org/2000/svg" width="1417" height="666" viewBox="0 0 1417 666">
    <g fill="none" fill-rule="evenodd" opacity=".1">
        <g fill="#FFF" fill-rule="nonzero">
            <path d="M1911 539.965C1721.886 649 1534.823 668.34 1349.813 597.985c-277.516-105.534-492.84-84.832-692.205 91.29C524.698 806.692 366.494 866.934 183 870v-94.864c347.444-23.834 377.042-357.976 587.214-467.644 210.171-109.668 398.89-68.584 642.055-68.584C1655.436 238.908 1895.953 45.73 1911-36v208.455c-26.876 43.23-77.094 76.988-150.655 101.275-110.34 36.43-191.81 68.049-151.076 152.563 40.735 84.513 226.412 66.488 301.731-28.584z" transform="translate(-183 -204)"/>
        </g>
    </g>
</svg>
